<svg width="70" height="50" viewBox="0 0 70 50" fill="none" xmlns="http://www.w3.org/2000/svg">
<path d="M40.9719 12.4271C42.2248 11.2157 43 9.54412 43 7.69728C43 3.99863 39.891 1 36.0562 1C33.6318 1 31.5003 2.20044 30.2582 4.0165C29.9283 4.33523 2.28646 37.1951 2.02806 37.5729C0.775193 38.7843 0 40.4564 0 42.3022C0 46.0014 3.109 49 6.94378 49C9.36819 49 11.4997 47.8 12.7418 45.9835C13.0717 45.6648 40.7135 12.8044 40.9719 12.4271Z" fill="white"/>
<path d="M55.2974 28.0393C56.5171 26.8192 57.271 25.1348 57.271 23.2736C57.271 19.5511 54.2531 16.5332 50.5306 16.5332C48.1762 16.5332 46.1061 17.7423 44.9005 19.5716C44.5777 19.8949 30.4848 37.2665 30.2325 37.6493C29.0128 38.8695 28.2588 40.5538 28.2588 42.4145C28.2588 46.1375 31.2767 49.1555 34.9992 49.1555C37.3536 49.1555 39.4237 47.9463 40.6289 46.117C40.9517 45.7942 55.0451 28.4221 55.2974 28.0393Z" fill="white"/>
<path d="M70.0002 7.5851C70.0002 11.3081 66.9822 14.3255 63.2598 14.3255C59.5368 14.3255 56.5193 11.3081 56.5193 7.5851C56.5193 3.86264 59.5368 0.844696 63.2598 0.844696C66.9822 0.844696 70.0002 3.86264 70.0002 7.5851Z" fill="white"/>
<path d="M13.4808 7.5851C13.4808 11.3081 10.4629 14.3255 6.7404 14.3255C3.01794 14.3255 0 11.3081 0 7.5851C0 3.86264 3.01794 0.844696 6.7404 0.844696C10.4629 0.844696 13.4808 3.86264 13.4808 7.5851Z" fill="white"/>
</svg>
